<?xml version="1.0" encoding="UTF-8" standalone="no"?>
<!DOCTYPE svg PUBLIC "-//W3C//DTD SVG 1.1//EN" "http://www.w3.org/Graphics/SVG/1.1/DTD/svg11.dtd">
<svg width="100%" height="100%" viewBox="0 0 186 258" version="1.1" xmlns="http://www.w3.org/2000/svg" xmlns:xlink="http://www.w3.org/1999/xlink" xml:space="preserve" xmlns:serif="http://www.serif.com/" style="fill-rule:evenodd;clip-rule:evenodd;stroke-linecap:round;stroke-linejoin:round;stroke-miterlimit:10;">
    <g transform="matrix(1,0,0,1,-163.054,-2.2374e-05)">
        <g transform="matrix(1,0,0,-1,0,257.669)">
            <g>
                <path d="M307.268,151.051L307.268,215.991C307.268,225.429 299.617,233.08 290.179,233.08C280.741,233.08 273.09,225.429 273.09,215.991L273.09,151.051L307.268,151.051Z" style="fill:rgb(255,229,194);fill-rule:nonzero;"/>
                <path d="M238.911,151.051L238.911,215.991C238.911,225.429 231.26,233.08 221.822,233.08C212.384,233.08 204.733,225.429 204.733,215.991L204.733,151.051L238.911,151.051Z" style="fill:rgb(255,229,194);fill-rule:nonzero;"/>
                <g>
                    <path d="M204.732,110.036L204.732,168.26C204.732,171.969 201.725,174.975 198.017,174.975C182.849,174.975 170.554,162.679 170.554,147.512L170.554,92.947C170.553,45.756 208.809,7.5 256,7.5C303.191,7.5 341.447,45.756 341.447,92.947L341.447,198.901C341.447,208.339 333.796,215.99 324.358,215.99C314.92,215.99 307.269,208.339 307.269,198.901L307.269,181.051L204.733,168.261L204.733,110.036L204.732,110.036Z" style="fill:rgb(255,229,194);fill-rule:nonzero;"/>
                    <path d="M196.594,102.979C192.1,102.979 188.456,106.622 188.456,111.117L188.456,168.261C188.456,169.919 187.852,171.434 186.856,172.605C190.267,174.124 194.041,174.976 198.016,174.976C201.725,174.976 204.731,171.969 204.731,168.261L204.731,111.117C204.732,106.623 201.089,102.979 196.594,102.979Z" style="fill:rgb(254,210,164);fill-rule:nonzero;"/>
                    <path d="M256,7.5C252.78,7.5 249.606,7.694 246.478,8.041C289.185,12.778 322.403,48.976 322.403,92.947L322.403,198.901C322.403,204.814 319.399,210.024 314.835,213.092C317.556,214.921 320.831,215.99 324.357,215.99C333.795,215.99 341.446,208.339 341.446,198.901L341.446,92.947C341.447,45.756 303.191,7.5 256,7.5Z" style="fill:rgb(254,210,164);fill-rule:nonzero;"/>
                    <path d="M298.075,143.863C292.998,143.863 288.882,147.979 288.882,153.056L288.882,215.99C288.882,222.04 285.729,227.344 280.986,230.38C283.959,232.283 287.55,233.307 291.401,233.036C300.418,232.401 307.268,224.613 307.268,215.573L307.268,153.055C307.268,147.979 303.152,143.863 298.075,143.863Z" style="fill:rgb(254,210,164);fill-rule:nonzero;"/>
                    <path d="M229.717,143.863C224.64,143.863 220.524,147.979 220.524,153.056L220.524,215.99C220.524,222.04 217.371,227.344 212.628,230.38C215.601,232.283 219.192,233.307 223.044,233.036C232.061,232.401 238.911,224.613 238.911,215.573L238.911,153.055C238.911,147.979 234.795,143.863 229.717,143.863Z" style="fill:rgb(254,210,164);fill-rule:nonzero;"/>
                    <path d="M263.896,143.863C258.819,143.863 254.703,147.979 254.703,153.056L254.703,233.08C254.703,239.13 251.55,244.434 246.807,247.47C249.78,249.373 253.371,250.397 257.222,250.126C266.239,249.491 273.089,241.703 273.089,232.663L273.089,153.056C273.089,147.979 268.973,143.863 263.896,143.863Z" style="fill:rgb(254,210,164);fill-rule:nonzero;"/>
                    <path d="M238.911,151.051L238.911,215.991C238.911,225.429 231.26,233.08 221.822,233.08C212.384,233.08 204.733,225.429 204.733,215.991L204.733,151.051" style="fill:none;fill-rule:nonzero;stroke:black;stroke-width:15px;"/>
                    <path d="M341.447,167.284L341.447,198.901C341.447,208.339 333.796,215.99 324.358,215.99C314.92,215.99 307.269,208.339 307.269,198.901L307.269,151.051" style="fill:none;fill-rule:nonzero;stroke:black;stroke-width:15px;"/>
                </g>
                <path d="M170.553,147.512C170.553,162.68 182.849,174.975 198.016,174.975C201.725,174.975 204.731,171.968 204.731,168.26L204.731,102.98L170.552,102.98L170.552,147.512L170.553,147.512Z" style="fill:rgb(255,229,194);fill-rule:nonzero;"/>
                <path d="M273.089,168.14L273.089,233.08C273.089,242.518 265.438,250.169 256,250.169C246.562,250.169 238.911,242.518 238.911,233.08L238.911,168.14L273.089,168.14Z" style="fill:rgb(255,229,194);fill-rule:nonzero;"/>
            </g>
            <g>
                <path d="M307.268,151.051L307.268,215.991C307.268,225.429 299.617,233.08 290.179,233.08C280.741,233.08 273.09,225.429 273.09,215.991L273.09,151.051" style="fill:none;fill-rule:nonzero;stroke:black;stroke-width:15px;"/>
                <path d="M204.732,110.036L204.732,168.26C204.732,171.969 201.725,174.975 198.017,174.975C182.849,174.975 170.554,162.679 170.554,147.512L170.554,92.947C170.553,45.756 208.809,7.5 256,7.5C303.191,7.5 341.447,45.756 341.447,92.947L341.447,132.284" style="fill:none;fill-rule:nonzero;stroke:black;stroke-width:15px;"/>
                <path d="M273.089,168.14L273.089,233.08C273.089,242.518 265.438,250.169 256,250.169C246.562,250.169 238.911,242.518 238.911,233.08L238.911,168.14" style="fill:none;fill-rule:nonzero;stroke:black;stroke-width:15px;"/>
            </g>
        </g>
    </g>
</svg>
