<svg height="512pt" viewBox="-44 0 512 512.00172" width="512pt" xmlns="http://www.w3.org/2000/svg"><path d="m196.152344 478.003906c-3.726563 0-6.761719-3.03125-6.761719-6.757812v-21.148438c0-.890625-.59375-1.691406-1.441406-1.945312-9.804688-2.957032-18.832031-8.335938-26.113281-15.554688-.382813-.371094-.894532-.582031-1.433594-.582031-.324219 0-.636719.074219-.925782.21875l-18.398437 9.316406c-.945313.476563-1.996094.726563-3.042969.726563-.71875 0-1.429687-.113282-2.121094-.34375-1.703124-.546875-3.101562-1.746094-3.917968-3.367188l-9.898438-19.566406c-.816406-1.605469-.957031-3.441406-.394531-5.160156.5625-1.714844 1.761719-3.109375 3.371094-3.921875l17.945312-9.078125c.800781-.402344 1.234375-1.273438 1.082031-2.167969-.628906-3.617187-.949218-7.261719-.949218-10.824219 0-3.316406.273437-6.707031.816406-10.078125.140625-.882812-.292969-1.738281-1.085938-2.136719l-17.8125-9.011718c-1.609374-.820313-2.804687-2.214844-3.367187-3.933594s-.421875-3.550781.398437-5.15625l9.898438-19.558594c.800781-1.605468 2.191406-2.808594 3.914062-3.375.703126-.226562 1.410157-.339844 2.121094-.339844 1.054688 0 2.109375.257813 3.050782.738282l17.847656 9.027344c.289062.144531.597656.214843.914062.214843.550782 0 1.070313-.214843 1.460938-.605469 7.386718-7.503906 16.601562-13.066406 26.640625-16.082031.859375-.261719 1.441406-1.046875 1.441406-1.945312v-20.320313c0-3.726562 3.035156-6.757812 6.761719-6.757812h21.921875c3.726562 0 6.757812 3.03125 6.757812 6.757812v20.949219c0 .875.558594 1.644531 1.386719 1.925781 9.570312 3.21875 18.339844 8.792969 25.367188 16.121094.382812.398438.917968.628906 1.472656.628906.320312 0 .625-.074218.910156-.21875l19.179688-9.699218c.933593-.476563 1.988281-.734376 3.042968-.734376.710938 0 1.417969.113282 2.105469.332032 1.726563.570312 3.121094 1.769531 3.9375 3.378906l9.902344 19.5625c1.675781 3.324219.339843 7.398438-2.976563 9.085938l-19.636718 9.933593c-.777344.394531-1.21875 1.242188-1.09375 2.105469.453124 3.046875.683593 6.140625.683593 9.191406 0 3.292969-.269531 6.644532-.796875 9.953125-.132812.875.304688 1.730469 1.089844 2.132813l19.75 9.988281c1.605469.808594 2.804688 2.203125 3.367188 3.917969.5625 1.71875.425781 3.546875-.386719 5.15625l-9.898438 19.570312c-.835937 1.628906-2.234375 2.820313-3.941406 3.371094-.667969.222656-1.378906.339844-2.101563.339844-1.039062 0-2.089843-.25-3.035156-.722656l-19.730468-9.984376c-.292969-.148437-.59375-.222656-.910157-.222656-.542969 0-1.070312.222656-1.453125.609375-6.925781 7.050781-15.519531 12.4375-24.847656 15.574219-.828125.277344-1.386719 1.050781-1.386719 1.921875v21.792969c0 3.726562-3.03125 6.757812-6.757812 6.757812zm11.671875-121.78125c-6.992188 0-13.96875 2.371094-19.640625 6.675782-8.496094 6.449218-13.207032 16.523437-12.601563 26.941406.761719 13.425781 10.746094 25.679687 23.746094 29.144531 2.511719.664063 5.132813 1.003906 7.785156 1.003906 10.855469 0 21.574219-5.6875 27.304688-14.484375 7.339843-11.261718 6.558593-27.054687-1.855469-37.546875-3.675781-4.566406-8.710938-8.042969-14.566406-10.046875-3.277344-1.121094-6.703125-1.6875-10.171875-1.6875zm0 0" fill="#b2eaf9"/><path d="m338.832031 379.210938c.449219-20.355469.535157-40.570313.261719-60.078126-.175781-12.304687-.878906-24.128906-7.488281-33.546874-1.804688-2.574219-4.023438-4.929688-6.597657-7.003907l-2.328124-1.875 2.621093-1.433593c9.769531-5.359376 20.890625-8.191407 32.160157-8.191407 7.316406 0 14.34375 1.195313 20.878906 3.550781 18.398437 6.625 33.070312 22.839844 37.378906 41.320313 4.445312 19.011719-2.253906 40.101563-16.671875 52.480469-16 13.726562-39.480469 16.199218-58.148437 16.820312l-2.113282.070313zm0 0" fill="#b2eaf9"/><path d="m328.15625 151.988281c-2.03125 0-4.039062-.5-5.8125-1.449219l-1.289062-.683593.257812-1.433594c.648438-3.585937.796875-7.191406.449219-10.730469l-.136719-1.402344 1.273438-.601562c.296874-.140625.535156-.320312.726562-.550781 1.511719-1.835938 3.96875-2.9375 6.5625-2.9375 1.210938 0 2.40625.25 3.457031.722656 3.378907 1.515625 5.617188 5.25 5.4375 9.078125-.191406 3.738281-2.679687 7.347656-6.195312 8.980469-1.433594.660156-3.066407 1.007812-4.730469 1.007812zm0 0" fill="#b2eaf9"/><path d="m85.941406 152.507812c-3.132812 0-6.261718-1.714843-7.785156-4.265624-1.96875-3.292969-1.390625-8.011719 1.316406-10.742188 1.578125-1.59375 3.890625-2.511719 6.34375-2.511719 1.269532 0 2.511719.257813 3.605469.738281l1.589844.703126-.476563 1.671874c-.5 1.773438-.84375 3.609376-1.011718 5.464844-.183594 2.121094-.132813 4.289063.152343 6.4375l.296875 2.261719h-2.035156c-.636719.160156-1.308594.242187-1.996094.242187zm0 0" fill="#b2eaf9"/><path d="m62.09375 382.152344c-20.734375 0-40.855469-11.859375-50.074219-29.511719-11.226562-21.515625-5.765625-50.9375 12.441407-66.984375 9.582031-8.441406 22.996093-13.28125 36.800781-13.28125 9.71875 0 19.074219 2.347656 27.054687 6.785156l2.019532 1.121094-1.402344 1.835938c-7.355469 9.660156-8.980469 22.886718-9.925782 34.523437-1.664062 20.3125-2.664062 41.210937-2.972656 62.117187l-.027344 1.707032-1.871093.265625c-3.894531.941406-7.9375 1.421875-12.042969 1.421875zm0 0" fill="#b2eaf9"/><path d="m221.976562 160.367188c-16.648437 0-33.410156-1.261719-49.8125-3.753907-6.851562-1.042969-14.035156-2.367187-19.976562-6.058593-6.21875-3.855469-9.988281-10.148438-9.601562-16.039063.433593-6.558594 5.605468-11.625 10.300781-14.175781 5.734375-3.113282 12.445312-4.117188 18.828125-4.878906 11.652344-1.390626 23.695312-2.039063 37.90625-2.039063 4.917968 0 10.03125.078125 15.628906.234375.589844.019531 1.1875.027344 1.792969.027344 3.046875 0 6.359375-.203125 9.867187-.414063l.140625-.011719c3.855469-.234374 7.839844-.480468 11.78125-.480468 7.902344 0 17.726563.851562 23.582031 7.496094 7.28125 8.269531 7.9375 20.320312 4.367188 26.746093-5.128906 9.222657-17.054688 11.378907-28.046875 12.269531-8.851563.714844-17.855469 1.078126-26.757813 1.078126zm0 0" fill="#ed6d66"/><path d="m226.066406 218.175781c.117188-.53125.007813-1.105469-.3125-1.582031l-.363281-.542969 1.421875-36.015625 2.863281 1.324219c.246094.109375.488281.222656.71875.34375 9.480469 5.117187 14.910157 14.171875 13.867188 23.078125-.925781 7.839844-6.710938 13.898438-15.878907 16.621094l-3.304687.984375zm0 0" fill="#f9d889"/><path d="m218.105469 222.820312c-4.726563 0-9.859375-.765624-15.691407-2.332031l-1.621093-.4375.167969-1.847656-1.28125-37.5 1.5625-.394531c4.597656-1.167969 9.40625-1.785156 13.902343-1.785156 2.011719 0 3.976563.128906 5.835938.378906l1.804687.242187-1.738281 43.613281-1.875.046876c-.355469.011718-.710937.015624-1.066406.015624zm0 0" fill="#f9d889"/><path d="m194.121094 217.894531c-4.773438-1.761719-11.433594-4.796875-14.132813-10.820312-2.3125-5.140625-.984375-12.164063 3.226563-17.078125 2.253906-2.625 5.523437-4.917969 9.722656-6.820313l2.722656-1.234375 1.253906 36.980469zm0 0" fill="#f9d889"/><g fill="#5bd0fc"><path d="m386.6875 471.335938c-6.5 0-13.074219-.539063-19.539062-1.597657l-1.855469-.300781.191406-1.871094c.828125-8.230468 1.175781-16.601562 1.039063-24.886718l-.042969-2.582032 2.511719.601563c5.085937 1.226562 10.359374 1.84375 15.671874 1.84375 9.3125 0 18.683594-1.941407 27.097657-5.621094l2.710937-1.183594.089844 2.957031c.292969 9.640626-.339844 19.339844-1.886719 28.820313l-.335937 2.078125-2.058594-.445312c-.132812-.027344-.265625-.039063-.398438-.039063-.125 0-.25.011719-.371093.035156-7.535157 1.457031-15.207031 2.191407-22.824219 2.191407zm0 0"/><path d="m384.683594 438.484375c-5.804688 0-11.523438-.78125-16.992188-2.324219l-1.375-.386718-.082031-1.425782c-.421875-7.566406-1.226563-15.039062-2.386719-22.210937l-.433594-2.675781 2.683594.375c3.285156.457031 6.605469.691406 9.863282.691406 10.660156 0 21.351562-2.429688 30.914062-7.023438l2.1875-1.050781.613281 2.347656c2.160157 8.238281 3.632813 16.703125 4.378907 25.152344l.136718 1.554687-1.449218.5c-8.578126 4.238282-18.277344 6.476563-28.058594 6.476563zm0 0"/><path d="m360.046875 498.441406c1.894531-7.394531 3.402344-15.113281 4.484375-22.941406l.28125-2.023438 2.019531.324219c6.605469 1.066407 13.277344 1.605469 19.832031 1.605469 7.308594 0 14.746094-.671875 22.105469-2l2.957031-.53125-.648437 2.933594c-1.597656 7.179687-3.707031 14.1875-6.277344 20.828125-.476562 1.210937-.875 2.136719-1.507812 2.714843-.960938.859376-2.492188 1.039063-4.816407 1.0625l-39.078124.558594zm0 0"/><path d="m375.949219 406.472656c-3.964844 0-7.941407-.355468-11.8125-1.058594h-1.476563l-.328125-1.601562c-1.160156-5.765625-2.605469-11.597656-4.289062-17.34375l-.660157-2.246094 2.324219-.300781c14.300781-1.832031 25.730469-5.515625 34.949219-11.253906l1.816406-1.132813 1.003906 1.894532c3.941407 7.429687 7.261719 15.300781 9.867188 23.394531l.523438 1.625-1.519532.769531c-9.339844 4.742188-19.851562 7.253906-30.398437 7.253906zm0 0"/><path d="m300.15625 168.902344c.519531-9.089844.398438-18.261719.28125-27.132813l-.007812-.558593c-.109376-7.320313-.222657-14.890626-.710938-22.566407l-.175781-2.730469 2.65625.660157c2.941406.734375 5.8125 2.367187 8.085937 4.59375 3.113282 3.070312 5.414063 7.359375 6.660156 12.410156 3.332032 13.441406-2.261718 28.679687-13.601562 37.046875l-3.429688 2.53125zm0 0"/><path d="m247.410156 264.09375c-17.332031-.902344-35.257812-1.835938-53.300781-1.835938-5.992187 0-11.558594.097657-17.011719.308594-5.355468.199219-10.886718.492188-16.910156.894532l-2.039062.136718-.898438-19.890625 2.523438.53125c5.703124 1.203125 11.5625 2.035157 17.039062 2.753907l.363281.046874c12.726563 1.648438 25.882813 3.355469 39.035157 3.355469 4.496093 0 8.929687-.210937 13.175781-.628906 9.992187-.996094 19.238281-3.296875 27.476562-6.839844l3.0625-1.316406-1.945312 23.023437s-8.976563-.457031-10.570313-.539062zm0 0"/><path d="m235.878906 36.789062c-11.496094-1.949218-23.71875-2.976562-35.34375-2.976562-4.171875 0-8.242187.132812-12.09375.398438-1.339844.097656-2.796875.234374-4.453125.421874l-2.382812.269532.160156-2.390625c.625-9.355469 6.226563-18.351563 14.269531-22.914063 4.125-2.332031 8.921875-3.5625 13.875-3.5625 5.566406 0 11.085938 1.605469 15.539063 4.515625 7.914062 5.1875 12.925781 14.722657 12.761719 24.296875l-.039063 2.328125zm0 0"/><path d="m110.566406 171.976562c-10.683594-4.570312-17.988281-16.628906-16.984375-28.054687.953125-10.875 9.417969-21.089844 20.128907-24.28125l2.941406-.875-.386719 3.042969c-2.011719 15.964844-2.992187 32.222656-2.914063 48.316406l.015626 3.046875zm0 0"/><path d="m49.527344 405.5625c-11.265625 0-22.621094-2.53125-32.84375-7.324219l-1.554688-.730469.484375-1.648437c2.046875-6.960937 4.46875-13.875 7.199219-20.542969l.960938-2.355468 2.0625 1.496093c9.351562 6.773438 20.757812 10.917969 32.121093 11.671875l2.273438.152344-.445313 2.234375c-1.015625 5.078125-1.925781 10.175781-2.707031 15.148437l-.246094 1.566407-1.582031.121093c-1.894531.140626-3.820312.210938-5.722656.210938zm0 0"/><path d="m10.367188 497.066406c-1.429688-7.636718-2.453126-15.492187-3.039063-23.351562l-.1875-2.503906 2.480469.378906c6.902344 1.046875 13.886718 1.578125 20.761718 1.578125 6.660157 0 13.476563-.503907 20.257813-1.5l2.207031-.324219.082032 2.230469c.28125 7.570312.789062 15.140625 1.511718 22.496093l.214844 2.171876-43.980469.472656zm0 0"/><path d="m44.894531 437.066406c-11.894531 0-23.980469-2.375-34.941406-6.871094l-1.429687-.585937.207031-1.53125c1.101562-8.117187 2.683593-16.28125 4.703125-24.261719l.582031-2.3125 2.175781.976563c10.5625 4.75 21.789063 7.15625 33.359375 7.15625 1.238281 0 2.59375-.039063 4.265625-.117188l2.394532-.117187-.316407 2.375c-1.03125 7.753906-1.816406 15.550781-2.335937 23.171875l-.121094 1.730469-1.726562.128906c-2.253907.171875-4.546876.257812-6.816407.257812zm0 0"/><path d="m30.375 469.109375c-7.105469 0-14.273438-.574219-21.296875-1.707031-.15625-.003906-.25-.003906-.34375-.011719l-1.796875-.121094-.0625-1.800781c-.351562-9.597656-.050781-19.363281.886719-29.027344l.253906-2.613281 2.453125.941406c11.019531 4.222657 22.609375 6.367188 34.445312 6.367188 1.789063 0 3.710938-.070313 6.050782-.214844l2.230468-.140625-.105468 2.230469c-.355469 7.402343-.480469 14.96875-.367188 22.496093l.023438 1.738282-1.71875.265625c-6.824219 1.058593-13.773438 1.597656-20.652344 1.597656zm0 0"/></g><path d="m226.945312 505.9375c-37.835937 0-75.996093-1.921875-113.425781-5.710938-8.859375-.898437-17.277343-2.164062-22.839843-7.726562-5.710938-5.71875-6.878907-14.707031-7.589844-23.421875-4.136719-50.449219-4.152344-101.625-.039063-152.113281 1-12.226563 2.769531-26.007813 11.175781-34.808594l.191407-.203125.238281-.136719c.238281-.144531.433594-.308594.585938-.5l.101562-.207031.367188-.382813c.078124-.066406.152343-.136718.222656-.203124.125-.117188.246094-.234376.378906-.347657 7.0625-5.910156 16.914062-7.644531 26.40625-8.914062 18.019531-2.390625 36.367188-3.953125 54.527344-4.644531 5.296875-.199219 10.941406-.300782 16.773437-.300782 17.984375 0 35.875.929688 53.179688 1.832032 7.070312.371093 13.441406.699218 19.800781.976562l2.367188.113281c19.933593.855469 47.238281 2.03125 58.914062 18.679688 5.9375 8.464843 6.578125 19.621093 6.742188 31.269531.691406 48.648438-.78125 97.914062-4.375 146.425781-.828126 11.234375-2.269532 22.800781-9.820313 29.9375-7.089844 6.710938-17.925781 7.871094-28.417969 8.480469-21.640625 1.265625-43.664062 1.90625-65.464844 1.90625zm-65.90625-68.492188c6.617188 6.007813 14.550782 10.742188 22.945313 13.683594l1.339844.46875v19.648438c0 5.964844 4.855469 10.820312 10.828125 10.820312h21.921875c5.972656 0 10.828125-4.855468 10.828125-10.820312v-20.335938l1.285156-.492187c7.953125-3.054688 15.460938-7.761719 21.710938-13.601563l1.019531-.957031 18.398437 9.3125c1.539063.777344 3.175782 1.171875 4.867188 1.171875 1.144531 0 2.289062-.183594 3.398437-.546875 2.742188-.894531 4.96875-2.808594 6.277344-5.394531l9.898437-19.570313c2.695313-5.328125.554688-11.851562-4.765624-14.542969l-18.429688-9.320312.164062-1.386719c.296876-2.539062.445313-5.144531.445313-7.734375 0-2.335937-.121094-4.679687-.359375-6.964844l-.140625-1.371093 18.316406-9.269531c5.324219-2.691407 7.464844-9.214844 4.769531-14.546876l-9.898437-19.566406c-1.308594-2.574218-3.539063-4.492187-6.28125-5.394531-1.101563-.359375-2.242187-.542969-3.382813-.542969-1.695312 0-3.339843.394532-4.882812 1.171875l-17.828125 9.027344-1.023437-.976563c-6.386719-6.097656-14.089844-10.988281-22.277344-14.140624l-1.28125-.496094v-19.492188c0-5.964844-4.855469-10.820312-10.828125-10.820312h-21.921875c-5.972656 0-10.828125 4.855468-10.828125 10.820312v18.808594l-1.339844.46875c-8.65625 3.035156-16.789063 7.949219-23.519531 14.21875l-1.019532.949219-16.535156-8.371094c-1.535156-.773437-3.175781-1.167969-4.875-1.167969-1.140625 0-2.277344.183594-3.375.546875-2.75.902344-4.984375 2.816407-6.292968 5.394531l-9.898438 19.566407c-2.695312 5.328125-.554688 11.851562 4.765625 14.542969l16.488281 8.339843-.164062 1.390625c-.308594 2.617188-.464844 5.265625-.464844 7.875 0 2.804688.191406 5.714844.566406 8.644532l.175782 1.402343-16.597657 8.394531c-5.324219 2.699219-7.460937 9.226563-4.769531 14.542969l9.898438 19.570313c1.308593 2.585937 3.542968 4.5 6.285156 5.390625 1.109375.367187 2.25.550781 3.394531.550781 1.695313 0 3.332031-.394531 4.859375-1.171875l17.113281-8.652344zm0 0" fill="#288fc9"/><path d="m216.269531 246.328125c-13.097656 0-26.226562-1.710937-38.925781-3.367187-18.363281-2.390626-35.753906-5.527344-46.726562-17.535157-10.390626-11.371093-12.378907-28.335937-12.953126-43.433593-.9375-24.847657.675782-49.878907 4.785157-74.394532 2.953125-17.601562 7.792969-37.425781 21.285156-50.992187 10.488281-10.546875 26.46875-17.0625 44.992187-18.332031 3.808594-.265626 7.828126-.398438 11.945313-.398438 17.210937 0 35.542969 2.3125 50.300781 6.34375 14.84375 4.0625 28.605469 16.835938 35.910156 33.328125 8.878907 20.050781 9.199219 43.390625 9.480469 63.984375.210938 14.894531.429688 30.300781-2.363281 45.167969-3.085938 16.398437-9.695312 30.039062-19.113281 39.445312-13.753907 13.75-32.550781 18.238281-45.902344 19.582031-4.0625.402344-8.21875.601563-12.714844.601563zm-1.332031-71.898437c-13.972656 0-28.285156 5.3125-34.804688 12.917968-5.289062 6.152344-6.835937 14.75-3.855468 21.390625 3.640625 8.105469 12.535156 11.808594 19.878906 14.128907 5.890625 1.878906 13.703125 4.027343 21.957031 4.027343 3.679688 0 7.191407-.441406 10.441407-1.3125 11.21875-2.988281 18.601562-10.589843 19.742187-20.328125 1.234375-10.582031-5.027344-21.222656-15.953125-27.105468-4.507812-2.433594-10.527344-3.71875-17.40625-3.71875zm-5.265625-65.066407c-14.390625 0-26.605469.65625-38.441406 2.070313-6.769531.804687-13.90625 1.878906-20.285157 5.339844-7.203124 3.917968-11.960937 10.613281-12.417968 17.476562-.480469 7.371094 4.039062 15.132812 11.519531 19.769531 6.578125 4.078125 14.230469 5.5 21.507813 6.609375 16.578124 2.523438 33.546874 3.796875 50.425781 3.796875 9.082031 0 18.191406-.367187 27.078125-1.089843 12.066406-.980469 25.214844-3.445313 31.265625-14.339844 4.339843-7.800782 3.707031-21.683594-4.863281-31.40625-5.398438-6.132813-13.65625-8.867188-26.785157-8.867188-4.050781 0-8.03125.242188-11.878906.480469l-.148437.007813c-3.433594.210937-6.675782.410156-9.609376.410156-.574218 0-1.132812-.007813-1.675781-.023438-5.609375-.160156-10.742187-.234375-15.691406-.234375zm0 0" fill="#288fc9"/><path d="m207.03125 415.914062c-2.289062 0-4.53125-.289062-6.664062-.855468-11.160157-2.972656-20.074219-13.914063-20.730469-25.449219-.53125-9.207031 3.480469-17.761719 11.003906-23.476563 4.960937-3.769531 11.0625-5.847656 17.183594-5.847656 3.015625 0 5.996093.496094 8.851562 1.46875 5.125 1.75 9.519531 4.777344 12.714844 8.75 7.226563 9.011719 7.925781 23.105469 1.628906 32.785156-5 7.667969-14.417969 12.625-23.988281 12.625zm0 0" fill="#288fc9"/><path d="m291.890625 404.507812-17.179687-8.691406c.308593-2.65625.464843-5.328125.464843-7.96875 0-2.371094-.128906-4.773437-.378906-7.171875l17.09375-8.648437c6.3125-3.191406 8.847656-10.921875 5.652344-17.234375l-9.898438-19.5625c-1.546875-3.058594-4.191406-5.328125-7.445312-6.394531-3.257813-1.070313-6.730469-.804688-9.785157.742187l-16.574218 8.386719c-6.609375-6.3125-14.445313-11.289063-22.941406-14.5625v-18.113282c0-7.070312-5.75-12.824218-12.820313-12.824218h-21.925781c-7.070313 0-12.824219 5.753906-12.824219 12.824218v17.386719c-8.960937 3.140625-17.242187 8.144531-24.222656 14.636719l-15.289063-7.734375c-3.058594-1.546875-6.53125-1.808594-9.785156-.742187-3.257812 1.066406-5.898438 3.335937-7.445312 6.394531l-9.902344 19.5625c-3.191406 6.308593-.65625 14.039062 5.652344 17.234375l15.238281 7.710937c-.320313 2.707031-.480469 5.421875-.480469 8.109375 0 2.933594.195312 5.914063.585938 8.894532l-15.34375 7.765624c-6.308594 3.191407-8.84375 10.921876-5.652344 17.230469l9.902344 19.566407c1.542968 3.054687 4.1875 5.328124 7.445312 6.394531 3.253906 1.066406 6.726562.804687 9.785156-.742188l15.875-8.035156c6.851563 6.226563 14.929688 11.042969 23.636719 14.097656v18.226563c0 7.070312 5.753906 12.824218 12.824219 12.824218h21.925781c7.070313 0 12.820313-5.753906 12.820313-12.824218v-18.957032c8.25-3.175781 15.890624-7.964843 22.367187-14.007812l17.144531 8.675781c3.058594 1.546875 6.53125 1.808594 9.789063.742188 3.253906-1.066407 5.898437-3.339844 7.441406-6.394531l9.902344-19.566407c3.191406-6.308593.65625-14.039062-5.652344-17.230469zm-1.542969 13.59375-9.898437 19.5625c-.574219 1.132813-1.554688 1.976563-2.765625 2.375-1.207032.394532-2.496094.296876-3.632813-.277343l-19.714843-9.976563c-1.566407-.796875-3.46875-.480468-4.699219.773438-6.703125 6.824218-15.019531 12.039062-24.054688 15.082031-1.640625.550781-2.746093 2.089844-2.746093 3.820313v21.785156c0 2.625-2.136719 4.761718-4.761719 4.761718h-21.925781c-2.625 0-4.757813-2.136718-4.757813-4.761718v-21.152344c0-1.777344-1.167969-3.347656-2.871094-3.859375-9.472656-2.855469-18.214843-8.0625-25.28125-15.054687-.773437-.765626-1.796875-1.164063-2.835937-1.164063-.621094 0-1.242188.140625-1.820313.433594l-18.410156 9.316406c-1.132813.570313-2.425781.667969-3.632813.273437-1.207031-.394531-2.1875-1.238281-2.761718-2.375l-9.902344-19.5625c-1.183594-2.34375-.242188-5.210937 2.097656-6.398437l17.945313-9.078125c1.582031-.800781 2.457031-2.539062 2.152343-4.289062-.609374-3.511719-.917968-7.039063-.917968-10.484376 0-3.234374.265625-6.519531.789062-9.769531.277344-1.730469-.59375-3.445312-2.160156-4.234375l-17.808594-9.011718c-2.339844-1.1875-3.28125-4.054688-2.097656-6.398438l9.898438-19.5625c.574218-1.136719 1.558593-1.976562 2.765624-2.375 1.207032-.394531 2.496094-.300781 3.632813.277344l17.851563 9.03125c1.566406.792968 3.460937.484375 4.691406-.765625 7.164062-7.265625 16.089844-12.652344 25.804687-15.578125 1.703125-.511719 2.867188-2.082032 2.867188-3.859375v-20.3125c0-2.625 2.136719-4.761719 4.761719-4.761719h21.925781c2.625 0 4.761719 2.136719 4.761719 4.761719v20.945312c0 1.730469 1.101562 3.269531 2.746093 3.820313 9.265625 3.117187 17.757813 8.515625 24.558594 15.613281 1.230469 1.28125 3.148437 1.609375 4.734375.808594l19.175781-9.707031c1.132813-.570313 2.421875-.671876 3.632813-.273438 1.207031.394531 2.1875 1.238281 2.765625 2.371094l9.898437 19.566406c1.183594 2.339844.242188 5.210938-2.097656 6.394531l-19.628906 9.933594c-1.542969.78125-2.417969 2.464844-2.167969 4.179687.433594 2.96875.652344 5.964844.652344 8.902344 0 3.195313-.253907 6.4375-.761719 9.636719-.277344 1.730469.597656 3.4375 2.160156 4.230469l19.742188 9.988281c2.347656 1.1875 3.289062 4.054687 2.101562 6.398437zm0 0" fill="#231f20"/><path d="m234.121094 366.710938c-3.90625-4.871094-9.257813-8.566407-15.480469-10.691407-10.664063-3.648437-22.5-1.671875-31.664063 5.285157-9.019531 6.847656-14.027343 17.558593-13.394531 28.652343.816407 14.265625 11.425781 27.28125 25.230469 30.957031 2.722656.726563 5.511719 1.074219 8.304688 1.070313 11.371093 0 22.71875-5.773437 28.976562-15.386719 7.796875-11.96875 6.96875-28.742187-1.972656-39.886718zm-4.78125 35.488281c-5.855469 8.984375-18.085938 13.683593-28.453125 10.925781-10.367188-2.761719-18.644531-12.917969-19.253907-23.625-.488281-8.535156 3.234376-16.472656 10.21875-21.773438 4.710938-3.574218 10.332032-5.4375 15.976563-5.4375 2.765625 0 5.535156.445313 8.207031 1.359376 4.769532 1.628906 8.847656 4.433593 11.796875 8.109374 6.714844 8.367188 7.359375 21.453126 1.507813 30.441407zm0 0" fill="#231f20"/><path d="m249.226562 165.328125c12.585938-1.019531 26.335938-3.644531 32.851563-15.367187 5.945313-10.699219 2.070313-25.53125-5.113281-33.691407-9.636719-10.945312-26.632813-9.902343-40.289063-9.066406-4.097656.25-7.964843.492187-11.253906.398437-21.804687-.617187-38.59375-.050781-54.429687 1.84375-6.964844.832032-14.324219 1.945313-20.996094 5.570313-7.808594 4.242187-12.964844 11.5625-13.457032 19.101563-.535156 8.097656 4.355469 16.574218 12.453126 21.597656 6.917968 4.289062 14.789062 5.753906 22.257812 6.890625 16.777344 2.546875 33.753906 3.824219 50.726562 3.824219 9.09375 0 18.1875-.367188 27.25-1.101563zm-76.761718-10.695313c-6.644532-1.011718-13.601563-2.285156-19.222656-5.773437-5.597657-3.46875-8.996094-9.050781-8.660157-14.210937.378907-5.746094 5.035157-10.25 9.261719-12.546876 5.417969-2.941406 11.917969-3.910156 18.105469-4.652343 15.429687-1.839844 31.847656-2.394531 53.246093-1.789063 3.648438.101563 7.691407-.144531 11.972657-.40625 12.523437-.769531 26.714843-1.640625 33.746093 6.34375 5.242188 5.953125 8.144532 17.195313 4.113282 24.445313-4.667969 8.402343-15.992188 10.402343-26.453125 11.25-25.355469 2.054687-50.964844 1.160156-76.109375-2.660157zm0 0" fill="#231f20"/><path d="m195.546875 224.78125c6.472656 2.050781 14.34375 4.113281 22.5625 4.113281 3.617187 0 7.304687-.398437 10.960937-1.375 12.039063-3.21875 19.96875-11.453125 21.210938-22.03125 1.335938-11.402343-5.332031-22.824219-16.984375-29.105469-15.125-8.152343-43.742187-3.097656-54.683594 9.660157-5.777343 6.734375-7.449219 16.1875-4.160156 23.515625 3.957031 8.816406 13.351563 12.765625 21.09375 15.222656zm46.726563-20.234375c-.828126 7.050781-6.085938 12.453125-14.457032 14.9375l.191406-.851563c.253907-1.132812.007813-2.265624-.597656-3.15625l1.285156-32.367187c.261719.121094.527344.238281.773438.371094 8.726562 4.703125 13.753906 12.972656 12.804688 21.066406zm-27.128907-24.015625c1.917969 0 3.785157.121094 5.570313.355469l-1.589844 39.925781c-5.59375.136719-11.175781-.910156-16.191406-2.257812.007812-.109376.027344-.214844.023437-.328126l-1.222656-35.980468c4.375-1.113282 9.011719-1.714844 13.410156-1.714844zm-30.410156 10.761719c2.125-2.476563 5.292969-4.605469 9.027344-6.296875l1.050781 31.015625c-5.316406-1.953125-10.800781-4.847657-13.003906-9.753907-2.003906-4.46875-.800782-10.621093 2.925781-14.964843zm0 0" fill="#231f20"/><path d="m402.261719 369.640625c.242187-.203125.488281-.394531.730469-.601563 16.085937-13.808593 23.574218-37.300781 18.636718-58.464843-4.765625-20.421875-20.953125-38.339844-41.234375-45.648438-19.847656-7.148437-42.734375-4.570312-61.230469 6.898438-.160156.097656-.296874.21875-.4375.335937-14.609374-7.488281-33.878906-8.324218-49.109374-8.988281l-2.34375-.101563c-1.019532-.046874-2.042969-.09375-3.066407-.140624l1.871094-22.136719c.007813-.09375-.003906-.1875-.003906-.285157 4.597656-2.707031 9.039062-6.019531 13.097656-10.078124 10.289063-10.289063 17.476563-25.023438 20.785156-42.613282.570313-3.03125 1.015625-6.074218 1.367188-9.125.453125-.070312.902343-.214844 1.328125-.449218 8.511718-4.683594 14.945312-12.574219 18.414062-21.589844 2.246094.929687 4.648438 1.410156 7.042969 1.410156 2.519531 0 5.027344-.523438 7.3125-1.582031 5.609375-2.585938 9.417969-8.15625 9.707031-14.1875.300782-6.261719-3.40625-12.390625-9.011718-14.90625-3.097657-1.390625-6.558594-1.589844-9.730469-.765625l.359375-83.570313c.007812-2.226562-1.789063-4.042969-4.015625-4.050781-.007813 0-.011719 0-.019531 0-2.21875 0-4.023438 1.792969-4.03125 4.015625l-.335938 78.546875c-1.125-1.738281-2.398438-3.320312-3.8125-4.710938-3.820312-3.761718-8.609375-6.097656-13.507812-6.671874-1.234376-11.929688-3.652344-23.90625-8.605469-35.089844-8.148438-18.394532-23.042969-32.125-39.847657-36.71875-2.6875-.734375-5.488281-1.40625-8.367187-2.023438.707031-12.007812-5.359375-24.265625-15.433594-30.863281-10.46875-6.859375-24.824219-7.328125-35.71875-1.164063-10.429687 5.902344-17.265625 17.65625-17.402343 29.621094-14.617188 2.996094-27.207032 9.328125-36.222657 18.390625-14.691406 14.777344-19.847656 35.71875-22.957031 54.261719-.359375 2.128906-.6875 4.261719-1.007812 6.394531-7.871094 1.386719-14.953126 5.746094-20.03125 11.785157l-.070313-80.390626c-.003906-2.222656-1.808594-4.027343-4.03125-4.027343-.003906 0-.003906 0-.003906 0-2.230469.003906-4.03125 1.808593-4.03125 4.035156l.078125 84.601563c-4.421875-.429688-9.046875 1.050781-12.210938 4.238281-4.636718 4.675781-5.589844 12.46875-2.210937 18.121093 2.679687 4.488282 7.835937 7.214844 13.011719 7.214844 1.25 0 2.5-.167968 3.714843-.5 3.585938 9.332032 11.171875 17.128906 20.789063 20.367188.339844.113281.683594.167968 1.023437.1875.035157 1.199218.066407 2.398437.113281 3.597656.609376 16.191406 2.8125 34.472656 14.53125 47.296875 6.800782 7.445313 15.488282 11.816406 25.179688 14.671875-.054688.300781-.089844.613281-.078125.9375l.765625 16.933594c-10.078125.8125-20.132812 1.875-30.082031 3.195312-10.082031 1.34375-20.578125 3.214844-28.773438 9.699219-22.316406-13.632813-52.984375-11.214844-72.695312 6.15625-20.5468752 18.105469-26.480469 50.066406-13.808594 74.34375 2.988281 5.722656 6.921875 10.84375 11.535156 15.238281-17.328125 40.929688-21.992187 87.332032-13.105469 130.878906.382813 1.878907 2.035157 3.222657 3.949219 3.222657h.042969l47.902344-.515625c1.140625-.011719 2.21875-.507813 2.976562-1.359375.753906-.851563 1.113282-1.984375.988282-3.117188-4.144532-37.34375-2.410157-74.917969 5.125-111.714843 2.640624-.191407 5.273437-.570313 7.886718-1.128907-.171875 27.597657.855469 55.210938 3.097656 82.613281.808594 9.84375 2.195313 20.054688 9.347657 27.214844 6.953125 6.964844 16.914062 8.496094 26.515625 9.46875 37.777344 3.828125 75.929687 5.746094 114.035156 5.746094 21.980469 0 43.957031-.636719 65.824219-1.917969 11.605469-.675781 23.65625-2.015625 32.230469-10.121093 9.121093-8.628907 10.78125-21.476563 11.703124-33.898438 1.933594-26.101562 3.230469-52.414062 3.9375-78.730469 3.660157-.117187 7.394532-.300781 11.15625-.59375 11.234376 37.078125 11.613282 77.9375 1.03125 115.199219-.347656 1.226562-.097656 2.542969.679688 3.554688.761719.996093 1.945312 1.578124 3.199219 1.578124h.058593l41.8125-.589843c2.226563-.03125 5.957032-.082031 8.769532-2.617188 1.640625-1.480469 2.4375-3.300781 3.109375-5.039062 16.03125-41.402344 13.109375-89.492188-7.824219-128.648438-.105469-.191406-.230469-.363281-.363281-.535156zm-69.441407-234.898437c2.609376 1.171874 4.402344 4.183593 4.257813 7.164062-.140625 2.96875-2.210937 5.953125-5.03125 7.253906-2.671875 1.234375-6.042969 1.0625-8.765625-.382812.671875-3.71875.84375-7.519532.46875-11.28125.53125-.246094 1.015625-.597656 1.414062-1.078125 1.71875-2.09375 5.085938-2.828125 7.65625-1.675781zm-23.941406-12.140626c2.84375 2.796876 4.960938 6.757813 6.125 11.453126 3.175782 12.832031-2.28125 27.164062-12.855468 34.957031.527343-9.257813.40625-18.503907.28125-27.570313-.105469-7.378906-.21875-15.101562-.714844-22.929687 2.570312.648437 5.101562 2.054687 7.164062 4.089843zm-111.851562-111.261718c8.335937-4.714844 19.316406-4.355469 27.328125.890625 7.421875 4.859375 12.003906 13.734375 11.851562 22.585937-15.632812-2.644531-32.851562-3.636718-47.902343-2.597656-1.53125.105469-3.042969.257812-4.539063.429688.578125-8.679688 5.675781-17.015626 13.261719-21.308594zm-109.359375 138.925781c-2.800781.828125-6.296875-.539063-7.792969-3.046875s-1.042969-6.234375 1.011719-8.308594c1.910156-1.921875 5.238281-2.457031 7.722656-1.347656-.53125 1.894531-.898437 3.84375-1.070313 5.828125-.203124 2.304687-.144531 4.605469.152344 6.871094-.007812.003906-.015625.003906-.023437.003906zm7.902343-6.171875c.898438-10.269531 8.855469-19.59375 18.707032-22.53125-2.027344 16.097656-3.003906 32.347656-2.921875 48.570312-9.886719-4.226562-16.726563-15.300781-15.785157-26.039062zm36.519532 79.984375c-9.960938-10.902344-11.871094-27.429687-12.425782-42.164063-.933593-24.707031.667969-49.597656 4.757813-73.988281 2.898437-17.285156 7.628906-36.734375 20.726563-49.90625 10.148437-10.203125 25.671874-16.511719 43.710937-17.757812 19.722656-1.359375 43.324219.894531 61.585937 5.890625 14.273438 3.902344 27.535157 16.242187 34.601563 32.203125 8.710937 19.667969 9.035156 42.796875 9.320313 63.203125.207031 14.8125.417968 30.132812-2.332032 44.769531-3.007812 15.988281-9.425781 29.265625-18.5625 38.402344-13.347656 13.347656-31.671875 17.703125-44.691406 19.003906-16.996094 1.695313-34.375-.566406-51.183594-2.753906-17.984375-2.347657-34.996094-5.398438-45.507812-16.902344zm27.269531 22.117187c5.550781 1.171876 11.328125 2.015626 17.195313 2.777344 12.960937 1.6875 26.25 3.417969 39.65625 3.417969 4.445312 0 8.90625-.1875 13.371093-.636719 8.132813-.8125 18.164063-2.730468 28.070313-6.984375l-1.503906 17.765625c-2.898438-.144531-5.789063-.292968-8.632813-.441406-23.027344-1.195312-46.839844-2.433594-70.496094-1.53125-5.648437.214844-11.308593.519531-16.972656.902344zm-101.535156 141.925782c-1.011719 5.066406-1.921875 10.148437-2.71875 15.238281-12.914063.953125-25.847657-1.4375-37.570313-6.9375 2.03125-6.898437 4.402344-13.691406 7.128906-20.339844 9.648438 6.984375 21.273438 11.253907 33.160157 12.039063zm-48.953125 77.273437c-.347656-9.585937-.046875-19.203125.878906-28.757812 11.195312 4.292969 23.171875 6.5 35.160156 6.5 2.0625 0 4.121094-.089844 6.179688-.21875-.351563 7.53125-.472656 15.070312-.363282 22.617187-13.742187 2.132813-27.671874 2.097656-41.402343-.113281-.152344-.027344-.300781-.019531-.453125-.027344zm6.503906-61.085937c10.765625 4.835937 22.414062 7.328125 34.179688 7.328125 1.453124 0 2.90625-.050781 4.359374-.125-1.035156 7.746093-1.816406 15.519531-2.355468 23.304687-13.878906 1.039063-27.964844-1.1875-40.84375-6.472656 1.101562-8.09375 2.65625-16.121094 4.660156-24.035156zm-3.039062 92.386718c-1.433594-7.640624-2.429688-15.371093-3.011719-23.132812 6.992187 1.058594 14.023437 1.609375 21.0625 1.609375 6.863281 0 13.722656-.519531 20.546875-1.527344.277344 7.539063.777344 15.082031 1.519531 22.617188zm61.285156-117.90625c-22.722656 5.554688-49-6.332031-59.828125-27.066406-10.824219-20.738281-5.558594-49.097656 11.992187-64.5625 16.371094-14.429687 42.527344-16.835937 61.5625-6.257812-7.570312 9.949218-9.34375 23.390625-10.339844 35.574218-1.679687 20.664063-2.667968 41.445313-2.976562 62.253907-.136719.019531-.273438.023437-.410156.058593zm255.035156 86.675782c-.800781 10.847656-2.171875 21.992187-9.203125 28.636718-6.601563 6.238282-17.035156 7.339844-27.15625 7.933594-59.351563 3.472656-119.429687 2.191406-178.574219-3.800781-8.496094-.863281-16.542968-2.054687-21.625-7.144531-5.226562-5.230469-6.332031-13.824219-7.015625-22.175782-4.125-50.355468-4.136719-101.425781-.035156-151.785156.976563-11.996094 2.71875-25.308594 10.625-33.589844.492187-.289062.933594-.671874 1.28125-1.167968.023437-.039063.039063-.082032.0625-.121094.203125-.179688.390625-.375.601563-.550781 6.632812-5.566407 16.171874-7.226563 25.371093-8.449219 17.925781-2.378906 36.210938-3.9375 54.339844-4.628906 23.289063-.886719 46.917969.339844 69.769531 1.527344 6.488282.335937 13.199219.683593 19.816406.980468l2.355469.101563c19.527344.847656 46.269531 2.007812 57.371094 17.835937 5.617187 8.003906 6.226563 18.828125 6.386719 30.148438.6875 48.585937-.78125 97.789062-4.371094 146.25zm12.433594-146.363282c-.179688-12.628906-.914063-24.78125-7.847656-34.667968-2-2.851563-4.355469-5.296875-6.976563-7.410156 15.714844-8.613282 35.109375-10.375 51.394531-4.507813 17.777344 6.402344 31.957032 22.0625 36.117188 39.890625 4.273437 18.3125-2.171875 38.613281-16.035156 50.515625-15.148438 13-37.054688 15.675781-56.910157 16.335937.4375-20.09375.539063-40.175781.257813-60.15625zm54.625 55.261719c3.921875 7.394531 7.164062 15.125 9.726562 23.070313-12.597656 6.398437-27.15625 8.53125-41.066406 5.988281-.027344-.003906-.050781-.003906-.078125-.007813-1.195313-5.902343-2.640625-11.75-4.335937-17.507812 12.5625-1.613281 25.042968-4.867188 35.753906-11.542969zm16.347656 55.761719c-.027344.011719-.058594.015625-.089844.03125-13.40625 6.664062-29.335937 8.144531-43.742187 4.078125-.414063-7.515625-1.210938-15.003906-2.402344-22.417969 3.359375.472656 6.746094.714844 10.132813.714844 10.953124 0 21.875-2.460938 31.78125-7.230469 2.132812 8.136719 3.582031 16.445313 4.320312 24.824219zm-1.363281 37.074219c-.511719-.109375-1.046875-.117188-1.589844-.011719-13.78125 2.660156-27.789063 2.851562-41.636719.582031.835938-8.339843 1.1875-16.738281 1.050782-25.128906 5.277343 1.273437 10.707031 1.90625 16.144531 1.90625 9.566406 0 19.132812-1.964844 27.894531-5.789063.285156 9.511719-.335938 19.046876-1.863281 28.441407zm-7.769531 28.714843c-.238282.617188-.632813 1.644532-.984376 1.960938-.5625.503906-2.539062.53125-3.488281.546875l-36.472656.511719c1.945313-7.609375 3.453125-15.351563 4.535156-23.160156 6.695313 1.078124 13.421875 1.628906 20.148438 1.628906 7.507812 0 15.011719-.683594 22.457031-2.027344-1.550781 6.980469-3.605469 13.855469-6.195312 20.539062zm0 0" fill="#231f20"/></svg>