<?xml version="1.0" encoding="UTF-8"?>
<svg xmlns="http://www.w3.org/2000/svg" xmlns:xlink="http://www.w3.org/1999/xlink" version="1.1" id="Capa_1" x="0px" y="0px" viewBox="0 0 512 512" style="enable-background:new 0 0 512 512;" xml:space="preserve" width="512" height="512">
<g>
	<g>
		<path style="fill:#C9F6B0;" d="M256,23.799C127.759,23.799,23.799,127.759,23.799,256S127.759,488.201,256,488.201&#10;&#9;&#9;&#9;S488.201,384.241,488.201,256S384.241,23.799,256,23.799z M256,440.627c-101.967,0-184.628-82.66-184.628-184.627&#10;&#9;&#9;&#9;S154.033,71.373,256,71.373S440.628,154.033,440.628,256S357.967,440.627,256,440.627z"/>
		<g>
			<path style="fill:#9BE69D;" d="M241,71.981c-4.948-0.398-9.949-0.609-15-0.609c-101.967,0-184.628,82.66-184.628,184.627&#10;&#9;&#9;&#9;&#9;S124.033,440.627,226,440.627c5.051,0,10.052-0.211,15-0.609C146.049,432.383,71.372,352.916,71.372,256&#10;&#9;&#9;&#9;&#9;S146.049,79.617,241,71.981z"/>
			<path style="fill:#9BE69D;" d="M256,23.799c-5.041,0-10.039,0.179-15,0.495C362.248,32.027,458.201,132.8,458.201,256&#10;&#9;&#9;&#9;&#9;S362.248,479.973,241,487.706c4.961,0.316,9.959,0.495,15,0.495c128.241,0,232.201-103.96,232.201-232.201&#10;&#9;&#9;&#9;&#9;S384.241,23.799,256,23.799z"/>
		</g>
		<g>
			<path style="fill:#FFE5C2;" d="M307.268,151.051v64.94c0,9.438-7.651,17.089-17.089,17.089h0&#10;&#9;&#9;&#9;&#9;c-9.438,0-17.089-7.651-17.089-17.089v-64.94H307.268z"/>
			<path style="fill:#FFE5C2;" d="M238.911,151.051v64.94c0,9.438-7.651,17.089-17.089,17.089h0&#10;&#9;&#9;&#9;&#9;c-9.438,0-17.089-7.651-17.089-17.089v-64.94H238.911z"/>
			<path style="fill:#FFE5C2;" d="M204.732,110.036v58.224c0,3.709-3.007,6.715-6.715,6.715h0&#10;&#9;&#9;&#9;&#9;c-15.168,0-27.463-12.296-27.463-27.463V92.947C170.553,45.756,208.809,7.5,256,7.5h0c47.191,0,85.447,38.256,85.447,85.447&#10;&#9;&#9;&#9;&#9;v105.954c0,9.438-7.651,17.089-17.089,17.089h0c-9.438,0-17.089-7.651-17.089-17.089v-17.85l-102.536-12.79V110.036z"/>
			<path style="fill:#FFE5C2;" d="M170.553,147.512c0,15.168,12.296,27.463,27.463,27.463h0c3.709,0,6.715-3.007,6.715-6.715l0,0&#10;&#9;&#9;&#9;&#9;V102.98h-34.179V147.512z"/>
			<path style="fill:#FED2A4;" d="M196.594,102.979c-4.494,0-8.138,3.643-8.138,8.138v57.144c0,1.658-0.604,3.173-1.6,4.344&#10;&#9;&#9;&#9;&#9;c3.411,1.519,7.185,2.371,11.16,2.371h0c3.709,0,6.715-3.007,6.715-6.715v-57.144&#10;&#9;&#9;&#9;&#9;C204.732,106.623,201.089,102.979,196.594,102.979L196.594,102.979z"/>
			<g>
				<path style="fill:#FED2A4;" d="M256,7.5L256,7.5c-3.22,0-6.394,0.194-9.522,0.541c42.707,4.737,75.925,40.935,75.925,84.906&#10;&#9;&#9;&#9;&#9;&#9;v105.954c0,5.913-3.004,11.123-7.568,14.191c2.721,1.829,5.996,2.898,9.522,2.898h0c9.438,0,17.089-7.651,17.089-17.089V92.947&#10;&#9;&#9;&#9;&#9;&#9;C341.447,45.756,303.191,7.5,256,7.5z"/>
			</g>
			<path style="fill:#FFE5C2;" d="M273.089,168.14v64.94c0,9.438-7.651,17.089-17.089,17.089h0c-9.438,0-17.089-7.651-17.089-17.089&#10;&#9;&#9;&#9;&#9;v-64.94H273.089z"/>
			<path style="fill:#FED2A4;" d="M298.075,143.863c-5.077,0-9.193,4.116-9.193,9.193v62.934c0,6.05-3.153,11.354-7.896,14.39&#10;&#9;&#9;&#9;&#9;c2.973,1.903,6.564,2.927,10.415,2.656c9.017-0.635,15.867-8.423,15.867-17.463v-62.518&#10;&#9;&#9;&#9;&#9;C307.268,147.979,303.152,143.863,298.075,143.863L298.075,143.863z"/>
			<path style="fill:#FED2A4;" d="M229.717,143.863c-5.077,0-9.193,4.116-9.193,9.193v62.934c0,6.05-3.153,11.354-7.896,14.39&#10;&#9;&#9;&#9;&#9;c2.973,1.903,6.564,2.927,10.416,2.656c9.017-0.635,15.867-8.423,15.867-17.463v-62.518&#10;&#9;&#9;&#9;&#9;C238.911,147.979,234.795,143.863,229.717,143.863L229.717,143.863z"/>
			<path style="fill:#FED2A4;" d="M263.896,143.863c-5.077,0-9.193,4.116-9.193,9.193v80.024c0,6.05-3.153,11.354-7.896,14.39&#10;&#9;&#9;&#9;&#9;c2.973,1.903,6.564,2.927,10.415,2.656c9.017-0.635,15.867-8.423,15.867-17.463v-79.607&#10;&#9;&#9;&#9;&#9;C273.089,147.979,268.973,143.863,263.896,143.863L263.896,143.863z"/>
		</g>
		<g>
			<path style="fill:#FFBD86;" d="M293.379,414.219l65.254,65.254c33.369,33.369,87.471,33.369,120.84,0l0,0&#10;&#9;&#9;&#9;&#9;c33.369-33.369,33.369-87.471,0-120.84l-29.002-29.002L293.379,414.219z"/>
			<g>
				<path style="fill:#EA9B58;" d="M424.8,376.464c6.674-6.674,6.674-17.494,0-24.168l-5.747-5.747l-62.837,33.835l24.667,24.667&#10;&#9;&#9;&#9;&#9;&#9;c6.674,6.674,17.494,6.674,24.168,0v0c6.674-6.674,6.674-17.494,0-24.168l-4.419-4.419&#10;&#9;&#9;&#9;&#9;&#9;C407.306,383.138,418.126,383.138,424.8,376.464z"/>
				<path style="fill:#EA9B58;" d="M300.003,410.653c-0.89,5.27,0.684,10.875,4.751,14.941l21.751,21.751&#10;&#9;&#9;&#9;&#9;&#9;c6.674,6.674,17.494,6.674,24.168,0c6.674-6.674,6.674-17.493,0.001-24.167l6.041,6.042c6.674,6.674,17.494,6.674,24.168,0&#10;&#9;&#9;&#9;&#9;&#9;s6.674-17.494,0-24.168l-24.667-24.667L300.003,410.653z"/>
			</g>
			<path style="fill:#F6A96C;" d="M479.473,358.633l-29.002-29.002l-19.5,10.5l18.502,18.502c33.369,33.369,33.369,87.471,0,120.84&#10;&#9;&#9;&#9;&#9;l0,0c-12.853,12.853-28.785,20.734-45.42,23.686c26.553,4.711,54.904-3.169,75.42-23.686l0,0&#10;&#9;&#9;&#9;&#9;C512.842,446.104,512.842,392.002,479.473,358.633z"/>
			<path style="fill:#FFBD86;" d="M385.632,361.464l-33.835-33.835c-6.674-6.674-6.674-17.494,0-24.168l0,0&#10;&#9;&#9;&#9;&#9;c6.674-6.674,17.494-6.674,24.168,0l33.835,33.835c6.674,6.674,6.674,17.494,0,24.168l0,0&#10;&#9;&#9;&#9;&#9;C403.126,368.138,392.306,368.138,385.632,361.464z"/>
			<path style="fill:#F6A96C;" d="M409.8,337.296l-33.835-33.835c-6.674-6.674-17.494-6.674-24.168,0h0&#10;&#9;&#9;&#9;&#9;c-2.535,2.535-4.102,5.67-4.711,8.947c5.634-1.411,11.844,0.066,16.25,4.472l33.835,33.835c4.139,4.138,5.705,9.871,4.711,15.221&#10;&#9;&#9;&#9;&#9;c2.9-0.727,5.651-2.205,7.918-4.473l0,0C416.474,354.79,416.474,343.97,409.8,337.296z"/>
			<path style="fill:#FFBD86;" d="M311.505,432.345l-21.751-21.751c-6.674-6.674-6.674-17.494,0-24.168l0,0&#10;&#9;&#9;&#9;&#9;c6.674-6.674,17.494-6.674,24.168,0l21.751,21.751c6.674,6.674,6.674,17.494,0,24.168h0&#10;&#9;&#9;&#9;&#9;C329,439.019,318.179,439.019,311.505,432.345z"/>
			<path style="fill:#F6A96C;" d="M335.673,408.177l-21.751-21.751c-6.674-6.674-17.494-6.674-24.168,0l0,0&#10;&#9;&#9;&#9;&#9;c-0.225,0.225-0.423,0.466-0.633,0.7c0.384,0.322,0.762,0.654,1.122,1.014l21.751,21.751c6.449,6.449,6.647,16.758,0.633,23.468&#10;&#9;&#9;&#9;&#9;c6.714,5.631,16.733,5.299,23.046-1.014l0,0C342.347,425.672,342.347,414.851,335.673,408.177z"/>
			<path style="fill:#FFBD86;" d="M341.715,414.219l-33.835-33.835c-6.674-6.674-6.674-17.494,0-24.168v0&#10;&#9;&#9;&#9;&#9;c6.674-6.674,17.494-6.674,24.168,0l33.835,33.835c6.674,6.674,6.674,17.494,0,24.168l0,0&#10;&#9;&#9;&#9;&#9;C359.21,420.893,348.389,420.893,341.715,414.219z"/>
			<path style="fill:#F6A96C;" d="M365.883,390.052l-33.835-33.835c-6.674-6.674-17.494-6.674-24.168,0&#10;&#9;&#9;&#9;&#9;c-0.525,0.525-0.994,1.084-1.437,1.656c0.495,0.396,0.978,0.816,1.437,1.275l33.835,33.835&#10;&#9;&#9;&#9;&#9;c6.149,6.148,6.618,15.809,1.437,22.511c6.709,5.36,16.516,4.939,22.731-1.275l0,0&#10;&#9;&#9;&#9;&#9;C372.557,407.546,372.557,396.725,365.883,390.052z"/>
			<path style="fill:#FFBD86;" d="M365.883,390.051l-45.919-45.919c-6.674-6.674-6.674-17.494,0-24.168l0,0&#10;&#9;&#9;&#9;&#9;c6.674-6.674,17.494-6.674,24.168,0l45.919,45.919c6.674,6.674,6.674,17.494,0,24.168l0,0&#10;&#9;&#9;&#9;&#9;C383.378,396.725,372.557,396.725,365.883,390.051z"/>
			<path style="fill:#F6A96C;" d="M390.052,365.883l-45.919-45.919c-6.674-6.674-17.494-6.674-24.168,0&#10;&#9;&#9;&#9;&#9;c-1.942,1.942-3.301,4.239-4.113,6.678c5.205-0.809,10.71,0.773,14.72,4.783l45.919,45.919c4.732,4.732,6.091,11.544,4.113,17.49&#10;&#9;&#9;&#9;&#9;c3.458-0.537,6.784-2.119,9.448-4.783v0C396.725,383.378,396.725,372.557,390.052,365.883z"/>
			<path style="fill:#FFBD86;" d="M450.471,329.631l-26.168-26.168c-8.239-8.239-21.596-8.239-29.834,0l-53.683,53.683&#10;&#9;&#9;&#9;&#9;c-2.156,2.156-2.156,5.652,0,7.809l2.42,2.42c8.52,8.52,22.334,8.52,30.855,0l20.754-20.81&#10;&#9;&#9;&#9;&#9;c4.654-4.667,12.212-4.672,16.873-0.011l22.997,22.997L450.471,329.631z"/>
			<path style="fill:#F6A96C;" d="M343.206,367.374c1.828,1.828,3.909,3.24,6.121,4.284l41.795-41.795&#10;&#9;&#9;&#9;&#9;c8.239-8.239,21.596-8.239,29.834,0l21.085,21.085l8.43-21.316l-26.168-26.168c-8.239-8.239-21.596-8.239-29.834,0&#10;&#9;&#9;&#9;&#9;l-53.683,53.683c-2.156,2.156-2.156,5.652,0,7.809L343.206,367.374z"/>
		</g>
		<g>
			<path style="fill:#FFE5C2;" d="M111.519,344.189l36.891-73.265c4.245-8.43,14.519-11.823,22.949-7.578l0,0&#10;&#9;&#9;&#9;&#9;c8.43,4.245,11.823,14.519,7.578,22.949l-30.98,61.526c-0.58,1.151-0.642,2.495-0.172,3.695l0,0&#10;&#9;&#9;&#9;&#9;c1.239,3.163,5.387,3.892,7.63,1.341l49.269-56.01c4.851-5.513,12.455-7.157,18.936-4.681c1.852,0.708,3.609,1.757,5.18,3.138&#10;&#9;&#9;&#9;&#9;c7.083,6.231,7.774,17.032,1.543,24.116l-46.504,52.86l-3.603,4.099l-33.794,50.448L111.519,344.189z"/>
			<path style="fill:#FED2A4;" d="M228.8,295.305c-1.57-1.381-3.328-2.43-5.18-3.138c-0.936-0.358-1.897-0.619-2.868-0.806&#10;&#9;&#9;&#9;&#9;c2.117,5.705,1.116,12.361-3.183,17.249l-46.504,52.86l-25.769,29.319c-3.385,3.852-2.54,9.814,1.781,12.574h0&#10;&#9;&#9;&#9;&#9;c3.48,2.222,8.061,1.573,10.786-1.528l25.975-29.554l46.504-52.86C236.574,312.337,235.883,301.536,228.8,295.305z"/>
			<path style="fill:#FFE5C2;" d="M146.442,426.828l26.186-52.004c1.668-3.312,5.705-4.646,9.018-2.978l0,0&#10;&#9;&#9;&#9;&#9;c13.547,6.821,18.999,23.333,12.178,36.881l-24.54,48.736c-21.224,42.149-72.597,59.113-114.746,37.889l0,0&#10;&#9;&#9;&#9;&#9;c-42.149-21.223-59.113-72.597-37.889-114.746l32.28-64.107l62.591,27.69L146.442,426.828L146.442,426.828z"/>
			<path style="fill:#FED2A4;" d="M181.645,371.847c-0.464-0.234-0.943-0.402-1.427-0.521c3.49,7.385,3.672,16.241-0.286,24.102&#10;&#9;&#9;&#9;&#9;l-24.54,48.736c-21.223,42.149-72.597,59.113-114.746,37.889l0,0c-4.8-2.417-9.255-5.242-13.382-8.383&#10;&#9;&#9;&#9;&#9;c7.285,8.77,16.44,16.228,27.274,21.683l0,0c42.149,21.223,93.523,4.26,114.746-37.889l24.54-48.736&#10;&#9;&#9;&#9;&#9;C200.645,395.18,195.193,378.668,181.645,371.847z"/>
			<g>
				<path style="fill:#FED2A4;" d="M161.875,320.181l17.063-33.886c4.245-8.43,0.852-18.705-7.578-22.949h0&#10;&#9;&#9;&#9;&#9;&#9;c-1.446-0.728-2.948-1.216-4.463-1.508c1.601,4.301,1.494,9.224-0.733,13.646l-23.454,46.579&#10;&#9;&#9;&#9;&#9;&#9;c-4.414,8.767-2.245,19.417,5.248,25.758h0L161.875,320.181z"/>
			</g>
			<path style="fill:#FFE5C2;" d="M42.779,328.71l13.834-27.474c4.245-8.43,14.519-11.823,22.949-7.578h0&#10;&#9;&#9;&#9;&#9;c8.43,4.245,11.823,14.519,7.578,22.949l-13.834,27.474c-4.245,8.43-14.519,11.823-22.949,7.578l0,0&#10;&#9;&#9;&#9;&#9;C41.927,347.414,38.534,337.14,42.779,328.71z"/>
			<path style="fill:#FED2A4;" d="M79.563,293.658L79.563,293.658c-1.198-0.603-2.435-1.035-3.685-1.338&#10;&#9;&#9;&#9;&#9;c1.364,4.148,1.149,8.815-0.97,13.023l-13.834,27.474c-3.641,7.232-11.719,10.74-19.265,8.915&#10;&#9;&#9;&#9;&#9;c1.368,4.162,4.326,7.801,8.548,9.926c8.43,4.245,18.705,0.852,22.949-7.578l13.834-27.474&#10;&#9;&#9;&#9;&#9;C91.385,308.177,87.992,297.902,79.563,293.658z"/>
			<path style="fill:#FFE5C2;" d="M73.306,344.081l21.52-42.738c4.245-8.43,14.519-11.823,22.949-7.578l0,0&#10;&#9;&#9;&#9;&#9;c8.43,4.245,11.823,14.519,7.578,22.949l-21.52,42.738c-4.245,8.43-14.519,11.823-22.949,7.578h0&#10;&#9;&#9;&#9;&#9;C72.454,362.786,69.061,352.511,73.306,344.081z"/>
			<path style="fill:#FED2A4;" d="M117.775,293.765L117.775,293.765c-1.356-0.683-2.762-1.147-4.181-1.446&#10;&#9;&#9;&#9;&#9;c1.876,4.454,1.871,9.668-0.473,14.322l-21.52,42.738c-3.562,7.074-11.368,10.58-18.768,9.024&#10;&#9;&#9;&#9;&#9;c1.521,3.612,4.276,6.726,8.051,8.627h0c8.43,4.245,18.705,0.852,22.949-7.578l21.52-42.738&#10;&#9;&#9;&#9;&#9;C129.598,308.285,126.205,298.01,117.775,293.765z"/>
		</g>
	</g>
	<g>
		<path style="fill:none;stroke:#000000;stroke-width:15;stroke-linecap:round;stroke-linejoin:round;stroke-miterlimit:10;" d="&#10;&#9;&#9;&#9;M162.54,468.62c28.6,12.59,60.21,19.58,93.46,19.58c32.8,0,64-6.8,92.29-19.07"/>
		<path style="fill:none;stroke:#000000;stroke-width:15;stroke-linecap:round;stroke-linejoin:round;stroke-miterlimit:10;" d="&#10;&#9;&#9;&#9;M40.91,343.64C29.88,316.6,23.8,287.01,23.8,256c0-107.74,73.39-198.35,172.9-224.56"/>
		<path style="fill:none;stroke:#000000;stroke-width:15;stroke-linecap:round;stroke-linejoin:round;stroke-miterlimit:10;" d="&#10;&#9;&#9;&#9;M471.908,170.394C482.421,196.884,488.2,225.768,488.2,256c0,32.8-6.8,64-19.07,92.29"/>
		<path style="fill:none;stroke:#000000;stroke-width:15;stroke-linecap:round;stroke-linejoin:round;stroke-miterlimit:10;" d="&#10;&#9;&#9;&#9;M315.3,31.44c60.107,15.831,110.683,55.159,141.313,107.566"/>
		<path style="fill:none;stroke:#000000;stroke-width:15;stroke-linecap:round;stroke-linejoin:round;stroke-miterlimit:10;" d="&#10;&#9;&#9;&#9;M189.91,428.44c20.52,7.88,42.8,12.19,66.09,12.19c19.28,0,37.87-2.96,55.34-8.45"/>
		<path style="fill:none;stroke:#000000;stroke-width:15;stroke-linecap:round;stroke-linejoin:round;stroke-miterlimit:10;" d="&#10;&#9;&#9;&#9;M74.91,292.1c-2.33-11.67-3.54-23.75-3.54-36.1c0-71.14,40.23-132.88,99.19-163.71"/>
		<path style="fill:none;stroke:#000000;stroke-width:15;stroke-linecap:round;stroke-linejoin:round;stroke-miterlimit:10;" d="&#10;&#9;&#9;&#9;M341.44,92.29c58.96,30.83,99.19,92.57,99.19,163.71c0,19.28-2.96,37.88-8.44,55.35"/>
		<g>
			<path style="fill:none;stroke:#000000;stroke-width:15;stroke-linecap:round;stroke-linejoin:round;stroke-miterlimit:10;" d="&#10;&#9;&#9;&#9;&#9;M307.268,151.051v64.94c0,9.438-7.651,17.089-17.089,17.089h0c-9.438,0-17.089-7.651-17.089-17.089v-64.94"/>
			<path style="fill:none;stroke:#000000;stroke-width:15;stroke-linecap:round;stroke-linejoin:round;stroke-miterlimit:10;" d="&#10;&#9;&#9;&#9;&#9;M238.911,151.051v64.94c0,9.438-7.651,17.089-17.089,17.089h0c-9.438,0-17.089-7.651-17.089-17.089v-64.94"/>
			<path style="fill:none;stroke:#000000;stroke-width:15;stroke-linecap:round;stroke-linejoin:round;stroke-miterlimit:10;" d="&#10;&#9;&#9;&#9;&#9;M341.447,167.284v31.617c0,9.438-7.651,17.089-17.089,17.089h0c-9.438,0-17.089-7.651-17.089-17.089v-47.85"/>
			<path style="fill:none;stroke:#000000;stroke-width:15;stroke-linecap:round;stroke-linejoin:round;stroke-miterlimit:10;" d="&#10;&#9;&#9;&#9;&#9;M204.732,110.036v58.224c0,3.709-3.007,6.715-6.715,6.715h0c-15.168,0-27.463-12.296-27.463-27.463V92.947&#10;&#9;&#9;&#9;&#9;C170.553,45.756,208.809,7.5,256,7.5h0c47.191,0,85.447,38.256,85.447,85.447v39.337"/>
			<path style="fill:none;stroke:#000000;stroke-width:15;stroke-linecap:round;stroke-linejoin:round;stroke-miterlimit:10;" d="&#10;&#9;&#9;&#9;&#9;M273.089,168.14v64.94c0,9.438-7.651,17.089-17.089,17.089h0c-9.438,0-17.089-7.651-17.089-17.089v-64.94"/>
		</g>
		<g>
			<path style="fill:none;stroke:#000000;stroke-width:15;stroke-linecap:round;stroke-linejoin:round;stroke-miterlimit:10;" d="&#10;&#9;&#9;&#9;&#9;M293.379,414.219l65.254,65.254c33.369,33.369,87.471,33.369,120.84,0l0,0c33.369-33.369,33.369-87.471,0-120.84l-29.002-29.002"/>
			<path style="fill:none;stroke:#000000;stroke-width:15;stroke-linecap:round;stroke-linejoin:round;stroke-miterlimit:10;" d="&#10;&#9;&#9;&#9;&#9;M382.79,358.62l2.84,2.84c3.34,3.34,7.71,5.01,12.09,5.01c4.37,0,8.74-1.67,12.08-5.01c3.27-3.27,4.93-7.53,4.99-11.81"/>
			<path style="fill:none;stroke:#000000;stroke-width:15;stroke-linecap:round;stroke-linejoin:round;stroke-miterlimit:10;" d="&#10;&#9;&#9;&#9;&#9;M385.22,312.72l-9.26-9.26c-3.34-3.34-7.71-5-12.08-5s-8.74,1.66-12.08,5c-6.68,6.67-6.68,17.49,0,24.17l9.25,9.25"/>
			<path style="fill:none;stroke:#000000;stroke-width:15;stroke-linecap:round;stroke-linejoin:round;stroke-miterlimit:10;" d="&#10;&#9;&#9;&#9;&#9;M311.505,432.345l-21.751-21.751c-6.674-6.674-6.674-17.494,0-24.168l0,0c6.674-6.674,17.494-6.674,24.168,0l21.751,21.751&#10;&#9;&#9;&#9;&#9;c6.674,6.674,6.674,17.494,0,24.168h0C329,439.019,318.179,439.019,311.505,432.345z"/>
			<path style="fill:none;stroke:#000000;stroke-width:15;stroke-linecap:round;stroke-linejoin:round;stroke-miterlimit:10;" d="&#10;&#9;&#9;&#9;&#9;M341.715,414.219l-33.835-33.835c-6.674-6.674-6.674-17.494,0-24.168v0c6.674-6.674,17.494-6.674,24.168,0l33.835,33.835&#10;&#9;&#9;&#9;&#9;c6.674,6.674,6.674,17.494,0,24.168l0,0C359.21,420.893,348.389,420.893,341.715,414.219z"/>
			<path style="fill:none;stroke:#000000;stroke-width:15;stroke-linecap:round;stroke-linejoin:round;stroke-miterlimit:10;" d="&#10;&#9;&#9;&#9;&#9;M382.79,358.62l7.26,7.26c6.68,6.68,6.68,17.5,0,24.17c-3.33,3.34-7.71,5.01-12.08,5.01s-8.75-1.67-12.09-5.01l-45.92-45.92&#10;&#9;&#9;&#9;&#9;c-6.67-6.67-6.67-17.49,0-24.17c3.34-3.34,7.72-5,12.09-5c4.37,0,8.75,1.66,12.08,5l16.92,16.92"/>
			<path style="fill:none;stroke:#000000;stroke-width:15;stroke-linecap:round;stroke-linejoin:round;stroke-miterlimit:10;" d="&#10;&#9;&#9;&#9;&#9;M450.471,329.631l-26.168-26.168c-8.239-8.239-21.596-8.239-29.834,0l-53.683,53.683c-2.156,2.156-2.156,5.652,0,7.809l2.42,2.42&#10;&#9;&#9;&#9;&#9;c8.52,8.52,22.334,8.52,30.855,0l20.754-20.81c4.654-4.667,12.212-4.672,16.873-0.011l22.997,22.997"/>
		</g>
		<g>
			<path style="fill:none;stroke:#000000;stroke-width:15;stroke-linecap:round;stroke-linejoin:round;stroke-miterlimit:10;" d="&#10;&#9;&#9;&#9;&#9;M111.517,344.187l36.891-73.264c4.246-8.426,14.521-11.817,22.957-7.582c5.251,2.647,8.539,7.63,9.252,13.044&#10;&#9;&#9;&#9;&#9;c0.433,3.292-0.082,6.728-1.68,9.914l-30.983,61.522c-0.574,1.155-0.64,2.495-0.169,3.694c0.817,2.071,2.879,3.101,4.833,2.843&#10;&#9;&#9;&#9;&#9;c1.031-0.136,2.026-0.62,2.798-1.498l49.269-56.012c4.852-5.511,12.452-7.157,18.941-4.683c1.848,0.705,3.6,1.755,5.174,3.141&#10;&#9;&#9;&#9;&#9;c7.084,6.228,7.77,17.031,1.542,24.115l-46.496,52.863l-0.457,0.514"/>
			<path style="fill:none;stroke:#000000;stroke-width:15;stroke-linecap:round;stroke-linejoin:round;stroke-miterlimit:10;" d="&#10;&#9;&#9;&#9;&#9;M146.442,426.828l26.186-52.004c1.668-3.312,5.705-4.646,9.018-2.978l0,0c13.547,6.821,18.999,23.333,12.178,36.881&#10;&#9;&#9;&#9;&#9;l-24.54,48.736c-21.224,42.149-72.597,59.113-114.746,37.889l0,0c-42.149-21.223-59.113-72.597-37.889-114.746l32.28-64.107"/>
			<path style="fill:none;stroke:#000000;stroke-width:15;stroke-linecap:round;stroke-linejoin:round;stroke-miterlimit:10;" d="&#10;&#9;&#9;&#9;&#9;M42.779,328.71l13.834-27.474c4.245-8.43,14.519-11.823,22.949-7.578h0c8.43,4.245,11.823,14.519,7.578,22.949l-13.834,27.474&#10;&#9;&#9;&#9;&#9;c-4.245,8.43-14.519,11.823-22.949,7.578l0,0C41.927,347.414,38.534,337.14,42.779,328.71z"/>
			<path style="fill:none;stroke:#000000;stroke-width:15;stroke-linecap:round;stroke-linejoin:round;stroke-miterlimit:10;" d="&#10;&#9;&#9;&#9;&#9;M73.306,344.081l21.52-42.738c4.245-8.43,14.519-11.823,22.949-7.578l0,0c8.43,4.245,11.823,14.519,7.578,22.949l-21.52,42.738&#10;&#9;&#9;&#9;&#9;c-4.245,8.43-14.519,11.823-22.949,7.578h0C72.454,362.786,69.061,352.511,73.306,344.081z"/>
		</g>
	</g>
</g>















</svg>
