<?xml version="1.0" encoding="UTF-8" standalone="no"?>
<!DOCTYPE svg PUBLIC "-//W3C//DTD SVG 1.1//EN" "http://www.w3.org/Graphics/SVG/1.1/DTD/svg11.dtd">
<svg width="100%" height="100%" viewBox="0 0 235 223" version="1.1" xmlns="http://www.w3.org/2000/svg" xmlns:xlink="http://www.w3.org/1999/xlink" xml:space="preserve" xmlns:serif="http://www.serif.com/" style="fill-rule:evenodd;clip-rule:evenodd;stroke-linecap:round;stroke-linejoin:round;stroke-miterlimit:10;">
    <g transform="matrix(1,0,0,1,-277.249,-289.784)">
        <g>
            <g>
                <g>
                    <path d="M293.379,414.219L358.633,479.473C392.002,512.842 446.104,512.842 479.473,479.473C512.842,446.104 512.842,392.002 479.473,358.633L450.471,329.631L293.379,414.219Z" style="fill:rgb(255,189,134);fill-rule:nonzero;"/>
                    <g>
                        <path d="M424.8,376.464C431.474,369.79 431.474,358.97 424.8,352.296L419.053,346.549L356.216,380.384L380.883,405.051C387.557,411.725 398.377,411.725 405.051,405.051C411.725,398.377 411.725,387.557 405.051,380.883L400.632,376.464C407.306,383.138 418.126,383.138 424.8,376.464Z" style="fill:rgb(234,155,88);fill-rule:nonzero;"/>
                        <path d="M300.003,410.653C299.113,415.923 300.687,421.528 304.754,425.594L326.505,447.345C333.179,454.019 343.999,454.019 350.673,447.345C357.347,440.671 357.347,429.852 350.674,423.178L356.715,429.22C363.389,435.894 374.209,435.894 380.883,429.22C387.557,422.546 387.557,411.726 380.883,405.052L356.216,380.385L300.003,410.653Z" style="fill:rgb(234,155,88);fill-rule:nonzero;"/>
                    </g>
                    <path d="M479.473,358.633L450.471,329.631L430.971,340.131L449.473,358.633C482.842,392.002 482.842,446.104 449.473,479.473C436.62,492.326 420.688,500.207 404.053,503.159C430.606,507.87 458.957,499.99 479.473,479.473C512.842,446.104 512.842,392.002 479.473,358.633Z" style="fill:rgb(246,169,108);fill-rule:nonzero;"/>
                    <path d="M385.632,361.464L351.797,327.629C345.123,320.955 345.123,310.135 351.797,303.461C358.471,296.787 369.291,296.787 375.965,303.461L409.8,337.296C416.474,343.97 416.474,354.79 409.8,361.464C403.126,368.138 392.306,368.138 385.632,361.464Z" style="fill:rgb(255,189,134);fill-rule:nonzero;"/>
                    <path d="M409.8,337.296L375.965,303.461C369.291,296.787 358.471,296.787 351.797,303.461C349.262,305.996 347.695,309.131 347.086,312.408C352.72,310.997 358.93,312.474 363.336,316.88L397.171,350.715C401.31,354.853 402.876,360.586 401.882,365.936C404.782,365.209 407.533,363.731 409.8,361.463C416.474,354.79 416.474,343.97 409.8,337.296Z" style="fill:rgb(246,169,108);fill-rule:nonzero;"/>
                    <path d="M311.505,432.345L289.754,410.594C283.08,403.92 283.08,393.1 289.754,386.426C296.428,379.752 307.248,379.752 313.922,386.426L335.673,408.177C342.347,414.851 342.347,425.671 335.673,432.345C329,439.019 318.179,439.019 311.505,432.345Z" style="fill:rgb(255,189,134);fill-rule:nonzero;"/>
                    <path d="M335.673,408.177L313.922,386.426C307.248,379.752 296.428,379.752 289.754,386.426C289.529,386.651 289.331,386.892 289.121,387.126C289.505,387.448 289.883,387.78 290.243,388.14L311.994,409.891C318.443,416.34 318.641,426.649 312.627,433.359C319.341,438.99 329.36,438.658 335.673,432.345C342.347,425.672 342.347,414.851 335.673,408.177Z" style="fill:rgb(246,169,108);fill-rule:nonzero;"/>
                    <path d="M341.715,414.219L307.88,380.384C301.206,373.71 301.206,362.89 307.88,356.216C314.554,349.542 325.374,349.542 332.048,356.216L365.883,390.051C372.557,396.725 372.557,407.545 365.883,414.219C359.21,420.893 348.389,420.893 341.715,414.219Z" style="fill:rgb(255,189,134);fill-rule:nonzero;"/>
                    <path d="M365.883,390.052L332.048,356.217C325.374,349.543 314.554,349.543 307.88,356.217C307.355,356.742 306.886,357.301 306.443,357.873C306.938,358.269 307.421,358.689 307.88,359.148L341.715,392.983C347.864,399.131 348.333,408.792 343.152,415.494C349.861,420.854 359.668,420.433 365.883,414.219C372.557,407.546 372.557,396.725 365.883,390.052Z" style="fill:rgb(246,169,108);fill-rule:nonzero;"/>
                    <path d="M365.883,390.051L319.964,344.132C313.29,337.458 313.29,326.638 319.964,319.964C326.638,313.29 337.458,313.29 344.132,319.964L390.051,365.883C396.725,372.557 396.725,383.377 390.051,390.051C383.378,396.725 372.557,396.725 365.883,390.051Z" style="fill:rgb(255,189,134);fill-rule:nonzero;"/>
                    <path d="M390.052,365.883L344.133,319.964C337.459,313.29 326.639,313.29 319.965,319.964C318.023,321.906 316.664,324.203 315.852,326.642C321.057,325.833 326.562,327.415 330.572,331.425L376.491,377.344C381.223,382.076 382.582,388.888 380.604,394.834C384.062,394.297 387.388,392.715 390.052,390.051C396.725,383.378 396.725,372.557 390.052,365.883Z" style="fill:rgb(246,169,108);fill-rule:nonzero;"/>
                    <path d="M450.471,329.631L424.303,303.463C416.064,295.224 402.707,295.224 394.469,303.463L340.786,357.146C338.63,359.302 338.63,362.798 340.786,364.955L343.206,367.375C351.726,375.895 365.54,375.895 374.061,367.375L394.815,346.565C399.469,341.898 407.027,341.893 411.688,346.554L434.685,369.551L450.471,329.631Z" style="fill:rgb(255,189,134);fill-rule:nonzero;"/>
                    <path d="M343.206,367.374C345.034,369.202 347.115,370.614 349.327,371.658L391.122,329.863C399.361,321.624 412.718,321.624 420.956,329.863L442.041,350.948L450.471,329.632L424.303,303.464C416.064,295.225 402.707,295.225 394.469,303.464L340.786,357.147C338.63,359.303 338.63,362.799 340.786,364.956L343.206,367.374Z" style="fill:rgb(246,169,108);fill-rule:nonzero;"/>
                </g>
            </g>
            <g>
                <path d="M293.379,414.219L358.633,479.473C392.002,512.842 446.104,512.842 479.473,479.473C512.842,446.104 512.842,392.002 479.473,358.633L450.471,329.631" style="fill:none;fill-rule:nonzero;stroke:black;stroke-width:15px;"/>
                <path d="M382.79,358.62L385.63,361.46C388.97,364.8 393.34,366.47 397.72,366.47C402.09,366.47 406.46,364.8 409.8,361.46C413.07,358.19 414.73,353.93 414.79,349.65" style="fill:none;fill-rule:nonzero;stroke:black;stroke-width:15px;"/>
                <path d="M385.22,312.72L375.96,303.46C372.62,300.12 368.25,298.46 363.88,298.46C359.51,298.46 355.14,300.12 351.8,303.46C345.12,310.13 345.12,320.95 351.8,327.63L361.05,336.88" style="fill:none;fill-rule:nonzero;stroke:black;stroke-width:15px;"/>
                <path d="M311.505,432.345L289.754,410.594C283.08,403.92 283.08,393.1 289.754,386.426C296.428,379.752 307.248,379.752 313.922,386.426L335.673,408.177C342.347,414.851 342.347,425.671 335.673,432.345C329,439.019 318.179,439.019 311.505,432.345Z" style="fill:none;fill-rule:nonzero;stroke:black;stroke-width:15px;"/>
                <path d="M341.715,414.219L307.88,380.384C301.206,373.71 301.206,362.89 307.88,356.216C314.554,349.542 325.374,349.542 332.048,356.216L365.883,390.051C372.557,396.725 372.557,407.545 365.883,414.219C359.21,420.893 348.389,420.893 341.715,414.219Z" style="fill:none;fill-rule:nonzero;stroke:black;stroke-width:15px;"/>
                <path d="M382.79,358.62L390.05,365.88C396.73,372.56 396.73,383.38 390.05,390.05C386.72,393.39 382.34,395.06 377.97,395.06C373.6,395.06 369.22,393.39 365.88,390.05L319.96,344.13C313.29,337.46 313.29,326.64 319.96,319.96C323.3,316.62 327.68,314.96 332.05,314.96C336.42,314.96 340.8,316.62 344.13,319.96L361.05,336.88" style="fill:none;fill-rule:nonzero;stroke:black;stroke-width:15px;"/>
                <path d="M450.471,329.631L424.303,303.463C416.064,295.224 402.707,295.224 394.469,303.463L340.786,357.146C338.63,359.302 338.63,362.798 340.786,364.955L343.206,367.375C351.726,375.895 365.54,375.895 374.061,367.375L394.815,346.565C399.469,341.898 407.027,341.893 411.688,346.554L434.685,369.551" style="fill:none;fill-rule:nonzero;stroke:black;stroke-width:15px;"/>
            </g>
        </g>
    </g>
</svg>
