<?xml version="1.0" encoding="UTF-8" standalone="no"?>
<!DOCTYPE svg PUBLIC "-//W3C//DTD SVG 1.1//EN" "http://www.w3.org/Graphics/SVG/1.1/DTD/svg11.dtd">
<svg width="100%" height="100%" viewBox="0 0 243 258" version="1.1" xmlns="http://www.w3.org/2000/svg" xmlns:xlink="http://www.w3.org/1999/xlink" xml:space="preserve" xmlns:serif="http://www.serif.com/" style="fill-rule:evenodd;clip-rule:evenodd;stroke-linecap:round;stroke-linejoin:round;stroke-miterlimit:10;">
    <g transform="matrix(1,0,0,1,-0.00120324,-254.017)">
        <g>
            <g>
                <path d="M111.519,344.189L148.41,270.924C152.655,262.494 162.929,259.101 171.359,263.346C179.789,267.591 183.182,277.865 178.937,286.295L147.957,347.821C147.377,348.972 147.315,350.316 147.785,351.516C149.024,354.679 153.172,355.408 155.415,352.857L204.684,296.847C209.535,291.334 217.139,289.69 223.62,292.166C225.472,292.874 227.229,293.923 228.8,295.304C235.883,301.535 236.574,312.336 230.343,319.42L183.839,372.28L180.236,376.379L146.442,426.827L111.519,344.189Z" style="fill:rgb(255,229,194);fill-rule:nonzero;"/>
                <path d="M228.8,295.305C227.23,293.924 225.472,292.875 223.62,292.167C222.684,291.809 221.723,291.548 220.752,291.361C222.869,297.066 221.868,303.722 217.569,308.61L171.065,361.47L145.296,390.789C141.911,394.641 142.756,400.603 147.077,403.363C150.557,405.585 155.138,404.936 157.863,401.835L183.838,372.281L230.342,319.421C236.574,312.337 235.883,301.536 228.8,295.305Z" style="fill:rgb(254,210,164);fill-rule:nonzero;"/>
                <path d="M146.442,426.828L172.628,374.824C174.296,371.512 178.333,370.178 181.646,371.846C195.193,378.667 200.645,395.179 193.824,408.727L169.284,457.463C148.06,499.612 96.687,516.576 54.538,495.352C12.389,474.129 -4.575,422.755 16.649,380.606L48.929,316.499L111.52,344.189L146.442,426.828Z" style="fill:rgb(255,229,194);fill-rule:nonzero;"/>
                <path d="M181.645,371.847C181.181,371.613 180.702,371.445 180.218,371.326C183.708,378.711 183.89,387.567 179.932,395.428L155.392,444.164C134.169,486.313 82.795,503.277 40.646,482.053C35.846,479.636 31.391,476.811 27.264,473.67C34.549,482.44 43.704,489.898 54.538,495.353C96.687,516.576 148.061,499.613 169.284,457.464L193.824,408.728C200.645,395.18 195.193,378.668 181.645,371.847Z" style="fill:rgb(254,210,164);fill-rule:nonzero;"/>
                <g>
                    <path d="M161.875,320.181L178.938,286.295C183.183,277.865 179.79,267.59 171.36,263.346C169.914,262.618 168.412,262.13 166.897,261.838C168.498,266.139 168.391,271.062 166.164,275.484L142.71,322.063C138.296,330.83 140.465,341.48 147.958,347.821L161.875,320.181Z" style="fill:rgb(254,210,164);fill-rule:nonzero;"/>
                </g>
                <path d="M42.779,328.71L56.613,301.236C60.858,292.806 71.132,289.413 79.562,293.658C87.992,297.903 91.385,308.177 87.14,316.607L73.306,344.081C69.061,352.511 58.787,355.904 50.357,351.659C41.927,347.414 38.534,337.14 42.779,328.71Z" style="fill:rgb(255,229,194);fill-rule:nonzero;"/>
                <path d="M79.563,293.658C78.365,293.055 77.128,292.623 75.878,292.32C77.242,296.468 77.027,301.135 74.908,305.343L61.074,332.817C57.433,340.049 49.355,343.557 41.809,341.732C43.177,345.894 46.135,349.533 50.357,351.658C58.787,355.903 69.062,352.51 73.306,344.08L87.14,316.606C91.385,308.177 87.992,297.902 79.563,293.658Z" style="fill:rgb(254,210,164);fill-rule:nonzero;"/>
                <path d="M73.306,344.081L94.826,301.343C99.071,292.913 109.345,289.52 117.775,293.765C126.205,298.01 129.598,308.284 125.353,316.714L103.833,359.452C99.588,367.882 89.314,371.275 80.884,367.03C72.454,362.786 69.061,352.511 73.306,344.081Z" style="fill:rgb(255,229,194);fill-rule:nonzero;"/>
                <path d="M117.775,293.765C116.419,293.082 115.013,292.618 113.594,292.319C115.47,296.773 115.465,301.987 113.121,306.641L91.601,349.379C88.039,356.453 80.233,359.959 72.833,358.403C74.354,362.015 77.109,365.129 80.884,367.03C89.314,371.275 99.589,367.882 103.833,359.452L125.353,316.714C129.598,308.285 126.205,298.01 117.775,293.765Z" style="fill:rgb(254,210,164);fill-rule:nonzero;"/>
            </g>
            <g>
                <path d="M111.517,344.187L148.408,270.923C152.654,262.497 162.929,259.106 171.365,263.341C176.616,265.988 179.904,270.971 180.617,276.385C181.05,279.677 180.535,283.113 178.937,286.299L147.954,347.821C147.38,348.976 147.314,350.316 147.785,351.515C148.602,353.586 150.664,354.616 152.618,354.358C153.649,354.222 154.644,353.738 155.416,352.86L204.685,296.848C209.537,291.337 217.137,289.691 223.626,292.165C225.474,292.87 227.226,293.92 228.8,295.306C235.884,301.534 236.57,312.337 230.342,319.421L183.846,372.284L183.389,372.798" style="fill:none;fill-rule:nonzero;stroke:black;stroke-width:15px;"/>
                <path d="M146.442,426.828L172.628,374.824C174.296,371.512 178.333,370.178 181.646,371.846C195.193,378.667 200.645,395.179 193.824,408.727L169.284,457.463C148.06,499.612 96.687,516.576 54.538,495.352C12.389,474.129 -4.575,422.755 16.649,380.606L48.929,316.499" style="fill:none;fill-rule:nonzero;stroke:black;stroke-width:15px;"/>
                <path d="M42.779,328.71L56.613,301.236C60.858,292.806 71.132,289.413 79.562,293.658C87.992,297.903 91.385,308.177 87.14,316.607L73.306,344.081C69.061,352.511 58.787,355.904 50.357,351.659C41.927,347.414 38.534,337.14 42.779,328.71Z" style="fill:none;fill-rule:nonzero;stroke:black;stroke-width:15px;"/>
                <path d="M73.306,344.081L94.826,301.343C99.071,292.913 109.345,289.52 117.775,293.765C126.205,298.01 129.598,308.284 125.353,316.714L103.833,359.452C99.588,367.882 89.314,371.275 80.884,367.03C72.454,362.786 69.061,352.511 73.306,344.081Z" style="fill:none;fill-rule:nonzero;stroke:black;stroke-width:15px;"/>
            </g>
        </g>
    </g>
</svg>
